<?xml version="1.0" encoding="us-ascii" standalone="no"?>
<svg xmlns="http://www.w3.org/2000/svg" contentStyleType="text/css" height="526px" preserveAspectRatio="none"
     style="width:658px;height:526px;background:#FFFFFF;" version="1.1" viewBox="0 0 658 526" width="658px"
     zoomAndPan="magnify"><defs/><g><rect fill="#DDDDDD" height="514.3926" style="stroke:#181818;stroke-width:0.5;" width="408" x="189.5" y="6"/><text fill="#000000" font-family="sans-serif" font-size="13" font-weight="bold" lengthAdjust="spacing" textLength="36" x="375.5" y="18.5684">acme</text><rect fill="#FFFFFF" height="310.1055" style="stroke:#181818;stroke-width:1.0;" width="10" x="206.5" y="112.7988"/><rect fill="#FFFFFF" height="259.4844" style="stroke:#181818;stroke-width:1.0;" width="10" x="392.5" y="142.1094"/><rect fill="#FFFFFF" height="29.3105" style="stroke:#181818;stroke-width:1.0;" width="10" x="557.5" y="296.6621"/><rect fill="#FFFFFF" height="29.3105" style="stroke:#181818;stroke-width:1.0;" width="10" x="623" y="171.4199"/><rect fill="none" height="136.5527" style="stroke:#000000;stroke-width:1.5;" width="420" x="183.5" y="258.041"/><line style="stroke:#181818;stroke-width:0.5;stroke-dasharray:5.0,5.0;" x1="23" x2="23" y1="81.4883" y2="440.9043"/><line style="stroke:#181818;stroke-width:0.5;stroke-dasharray:5.0,5.0;" x1="211.5" x2="211.5" y1="81.4883" y2="440.9043"/><line style="stroke:#181818;stroke-width:0.5;stroke-dasharray:5.0,5.0;" x1="397.5" x2="397.5" y1="81.4883" y2="440.9043"/><line style="stroke:#181818;stroke-width:0.5;stroke-dasharray:5.0,5.0;" x1="562.5" x2="562.5" y1="81.4883" y2="440.9043"/><line style="stroke:#181818;stroke-width:0.5;stroke-dasharray:5.0,5.0;" x1="627.5" x2="627.5" y1="81.4883" y2="440.9043"/><text fill="#000000" font-family="sans-serif" font-size="14" lengthAdjust="spacing" textLength="31" x="5" y="78.5352">User</text><ellipse cx="23.5" cy="13.5" fill="#E2E2F0" rx="8" ry="8" style="stroke:#181818;stroke-width:0.5;"/><path d="M23.5,21.5 L23.5,48.5 M10.5,29.5 L36.5,29.5 M23.5,48.5 L10.5,63.5 M23.5,48.5 L36.5,63.5 " fill="none" style="stroke:#181818;stroke-width:0.5;"/><text fill="#000000" font-family="sans-serif" font-size="14" lengthAdjust="spacing" textLength="31" x="5" y="453.4395">User</text><ellipse cx="23.5" cy="464.8926" fill="#E2E2F0" rx="8" ry="8" style="stroke:#181818;stroke-width:0.5;"/><path d="M23.5,472.8926 L23.5,499.8926 M10.5,480.8926 L36.5,480.8926 M23.5,499.8926 L10.5,514.8926 M23.5,499.8926 L36.5,514.8926 " fill="none" style="stroke:#181818;stroke-width:0.5;"/><rect fill="#E2E2F0" height="30.4883" rx="2.5" ry="2.5" style="stroke:#181818;stroke-width:0.5;" width="36" x="193.5" y="50"/><text fill="#000000" font-family="sans-serif" font-size="14" lengthAdjust="spacing" textLength="22" x="200.5" y="70.5352">API</text><rect fill="#E2E2F0" height="30.4883" rx="2.5" ry="2.5" style="stroke:#181818;stroke-width:0.5;" width="36" x="193.5" y="439.9043"/><text fill="#000000" font-family="sans-serif" font-size="14" lengthAdjust="spacing" textLength="22" x="200.5" y="460.4395">API</text><rect fill="#E2E2F0" height="30.4883" rx="2.5" ry="2.5" style="stroke:#181818;stroke-width:0.5;" width="90" x="352.5" y="50"/><text fill="#000000" font-family="sans-serif" font-size="14" lengthAdjust="spacing" textLength="76" x="359.5" y="70.5352">Interceptor</text><rect fill="#E2E2F0" height="30.4883" rx="2.5" ry="2.5" style="stroke:#181818;stroke-width:0.5;" width="90" x="352.5" y="439.9043"/><text fill="#000000" font-family="sans-serif" font-size="14" lengthAdjust="spacing" textLength="76" x="359.5" y="460.4395">Interceptor</text><rect fill="#E2E2F0" height="30.4883" rx="2.5" ry="2.5" style="stroke:#181818;stroke-width:0.5;" width="62" x="531.5" y="50"/><text fill="#000000" font-family="sans-serif" font-size="14" lengthAdjust="spacing" textLength="48" x="538.5" y="70.5352">Service</text><rect fill="#E2E2F0" height="30.4883" rx="2.5" ry="2.5" style="stroke:#181818;stroke-width:0.5;" width="62" x="531.5" y="439.9043"/><text fill="#000000" font-family="sans-serif" font-size="14" lengthAdjust="spacing" textLength="48" x="538.5" y="460.4395">Service</text><rect fill="#E2E2F0" height="30.4883" rx="2.5" ry="2.5" style="stroke:#181818;stroke-width:0.5;" width="49" x="603.5" y="50"/><text fill="#000000" font-family="sans-serif" font-size="14" lengthAdjust="spacing" textLength="35" x="610.5" y="70.5352">IPApi</text><rect fill="#E2E2F0" height="30.4883" rx="2.5" ry="2.5" style="stroke:#181818;stroke-width:0.5;" width="49" x="603.5" y="439.9043"/><text fill="#000000" font-family="sans-serif" font-size="14" lengthAdjust="spacing" textLength="35" x="610.5" y="460.4395">IPApi</text><rect fill="#FFFFFF" height="310.1055" style="stroke:#181818;stroke-width:1.0;" width="10" x="206.5" y="112.7988"/><rect fill="#FFFFFF" height="259.4844" style="stroke:#181818;stroke-width:1.0;" width="10" x="392.5" y="142.1094"/><rect fill="#FFFFFF" height="29.3105" style="stroke:#181818;stroke-width:1.0;" width="10" x="557.5" y="296.6621"/><rect fill="#FFFFFF" height="29.3105" style="stroke:#181818;stroke-width:1.0;" width="10" x="623" y="171.4199"/><polygon fill="#181818" points="194.5,108.7988,204.5,112.7988,194.5,116.7988,198.5,112.7988" style="stroke:#181818;stroke-width:1.0;"/><line style="stroke:#181818;stroke-width:1.0;" x1="23.5" x2="200.5" y1="112.7988" y2="112.7988"/><text fill="#000000" font-family="sans-serif" font-size="13" font-weight="bold" lengthAdjust="spacing" textLength="9" x="30.5" y="108.0566">1</text><text fill="#000000" font-family="sans-serif" font-size="13" lengthAdjust="spacing" textLength="118" x="43.5" y="108.0566">Submit api request</text><polygon fill="#181818" points="380.5,138.1094,390.5,142.1094,380.5,146.1094,384.5,142.1094" style="stroke:#181818;stroke-width:1.0;"/><line style="stroke:#181818;stroke-width:1.0;" x1="216.5" x2="386.5" y1="142.1094" y2="142.1094"/><text fill="#000000" font-family="sans-serif" font-size="13" font-weight="bold" lengthAdjust="spacing" textLength="9" x="223.5" y="137.3672">2</text><text fill="#000000" font-family="sans-serif" font-size="13" lengthAdjust="spacing" textLength="79" x="236.5" y="137.3672">Pass request</text><polygon fill="#181818" points="611,167.4199,621,171.4199,611,175.4199,615,171.4199" style="stroke:#181818;stroke-width:1.0;"/><line style="stroke:#181818;stroke-width:1.0;" x1="402.5" x2="617" y1="171.4199" y2="171.4199"/><text fill="#000000" font-family="sans-serif" font-size="13" font-weight="bold" lengthAdjust="spacing" textLength="9" x="409.5" y="166.6777">3</text><text fill="#000000" font-family="sans-serif" font-size="13" lengthAdjust="spacing" textLength="115" x="422.5" y="166.6777">Retrieve data by IP</text><polygon fill="#181818" points="413.5,196.7305,403.5,200.7305,413.5,204.7305,409.5,200.7305" style="stroke:#181818;stroke-width:1.0;"/><line style="stroke:#181818;stroke-width:1.0;stroke-dasharray:2.0,2.0;" x1="407.5" x2="627" y1="200.7305" y2="200.7305"/><text fill="#000000" font-family="sans-serif" font-size="13" font-weight="bold" lengthAdjust="spacing" textLength="9" x="419.5" y="195.9883">4</text><text fill="#000000" font-family="sans-serif" font-size="13" lengthAdjust="spacing" textLength="44" x="432.5" y="195.9883">IP Data</text><line style="stroke:#181818;stroke-width:1.0;" x1="402.5" x2="444.5" y1="230.041" y2="230.041"/><line style="stroke:#181818;stroke-width:1.0;" x1="444.5" x2="444.5" y1="230.041" y2="243.041"/><line style="stroke:#181818;stroke-width:1.0;" x1="403.5" x2="444.5" y1="243.041" y2="243.041"/><polygon fill="#181818" points="413.5,239.041,403.5,243.041,413.5,247.041,409.5,243.041" style="stroke:#181818;stroke-width:1.0;"/><text fill="#000000" font-family="sans-serif" font-size="13" font-weight="bold" lengthAdjust="spacing" textLength="9" x="409.5" y="225.2988">5</text><text fill="#000000" font-family="sans-serif" font-size="13" lengthAdjust="spacing" textLength="75" x="422.5" y="225.2988">Policy Rules</text><path d="M183.5,258.041 L245.5,258.041 L245.5,265.3516 L235.5,275.3516 L183.5,275.3516 L183.5,258.041 " fill="#EEEEEE" style="stroke:#000000;stroke-width:1.5;"/><rect fill="none" height="136.5527" style="stroke:#000000;stroke-width:1.5;" width="420" x="183.5" y="258.041"/><text fill="#000000" font-family="sans-serif" font-size="13" font-weight="bold" lengthAdjust="spacing" textLength="17" x="198.5" y="271.6094">alt</text><text fill="#000000" font-family="sans-serif" font-size="11" font-weight="bold" lengthAdjust="spacing" textLength="120" x="260.5" y="270.6758">["is request allowed"]</text><polygon fill="#181818" points="545.5,292.6621,555.5,296.6621,545.5,300.6621,549.5,296.6621" style="stroke:#181818;stroke-width:1.0;"/><line style="stroke:#181818;stroke-width:1.0;" x1="402.5" x2="551.5" y1="296.6621" y2="296.6621"/><text fill="#000000" font-family="sans-serif" font-size="13" font-weight="bold" lengthAdjust="spacing" textLength="9" x="409.5" y="291.9199">6</text><text fill="#000000" font-family="sans-serif" font-size="13" lengthAdjust="spacing" textLength="79" x="422.5" y="291.9199">Pass request</text><polygon fill="#181818" points="413.5,321.9727,403.5,325.9727,413.5,329.9727,409.5,325.9727" style="stroke:#181818;stroke-width:1.0;"/><line style="stroke:#181818;stroke-width:1.0;stroke-dasharray:2.0,2.0;" x1="407.5" x2="561.5" y1="325.9727" y2="325.9727"/><text fill="#000000" font-family="sans-serif" font-size="13" font-weight="bold" lengthAdjust="spacing" textLength="9" x="419.5" y="321.2305">7</text><text fill="#000000" font-family="sans-serif" font-size="13" lengthAdjust="spacing" textLength="118" x="432.5" y="321.2305">Request processed</text><polygon fill="#181818" points="227.5,351.2832,217.5,355.2832,227.5,359.2832,223.5,355.2832" style="stroke:#181818;stroke-width:1.0;"/><line style="stroke:#181818;stroke-width:1.0;stroke-dasharray:2.0,2.0;" x1="221.5" x2="391.5" y1="355.2832" y2="355.2832"/><text fill="#000000" font-family="sans-serif" font-size="13" font-weight="bold" lengthAdjust="spacing" textLength="9" x="233.5" y="350.541">8</text><text fill="#000000" font-family="sans-serif" font-size="13" lengthAdjust="spacing" textLength="88" x="246.5" y="350.541">Response 200</text><line style="stroke:#000000;stroke-width:1.0;stroke-dasharray:2.0,2.0;" x1="183.5" x2="603.5" y1="364.2832" y2="364.2832"/><polygon fill="#FF0000" points="227.5,382.5938,217.5,386.5938,227.5,390.5938,223.5,386.5938" style="stroke:#FF0000;stroke-width:1.0;"/><line style="stroke:#FF0000;stroke-width:1.0;stroke-dasharray:2.0,2.0;" x1="221.5" x2="391.5" y1="386.5938" y2="386.5938"/><text fill="#000000" font-family="sans-serif" font-size="13" font-weight="bold" lengthAdjust="spacing" textLength="9" x="233.5" y="381.8516">9</text><text fill="#000000" font-family="sans-serif" font-size="13" lengthAdjust="spacing" textLength="139" x="246.5" y="381.8516">Access Forbidden 403</text><polygon fill="#181818" points="34.5,418.9043,24.5,422.9043,34.5,426.9043,30.5,422.9043" style="stroke:#181818;stroke-width:1.0;"/><line style="stroke:#181818;stroke-width:1.0;stroke-dasharray:2.0,2.0;" x1="28.5" x2="210.5" y1="422.9043" y2="422.9043"/><text fill="#000000" font-family="sans-serif" font-size="13" font-weight="bold" lengthAdjust="spacing" textLength="18" x="40.5" y="418.1621">10</text><text fill="#000000" font-family="sans-serif" font-size="13" lengthAdjust="spacing" textLength="137" x="62.5" y="418.1621">Return JSON response</text><!--SRC=[RL9DIyGm4BtdLmphmTEwYthgGLWGOJrewU99F4oJGGDf4lEnkl_U9Fj1sbfe6QRlpNlpSVqLWlNDQcKLwX07TSFDiFBq7KbpMWg9dmu7nZ06e-FGaqin3yR1cqznRtvXWNoW1OFqM7H1ScbJATYqsrbkgmCvJZRnP_zsvFQI4oCj89Lb8rwxiPAnB0dBXrowWLti1na0hGINxVgGZSaz1YhQwStOIhA15hsVesjNLLpOMRY1ZeAJj2SG613wGyfNz6AkV64vLTosy9WuJD0KFn4QsJHAyWDqKP5dg08ivCKse5BcXyHnu9CgfnbE6it0Y_fvp3bvYkUkkvEMTOQJzoGAlEgXhZBoSDvEHzuQxGbkr-k28kN_WRzVEH8VPzA6PpLuCgwNGf26-_LTleVHzAfbbHKdShwBigJeD3plNbzIwqVvcfcFuWy0]--></g></svg>
