<?xml version="1.0" encoding="us-ascii" standalone="no"?>
<svg xmlns="http://www.w3.org/2000/svg" contentStyleType="text/css" height="546px" preserveAspectRatio="none"
     style="width:715px;height:546px;background:#FFFFFF;" version="1.1" viewBox="0 0 715 546" width="715px"
     zoomAndPan="magnify"><defs/><g><rect fill="#DDDDDD" height="534.3242" style="stroke:#181818;stroke-width:0.5;" width="550.5" x="103.5" y="6"/><text fill="#000000" font-family="sans-serif" font-size="13" font-weight="bold" lengthAdjust="spacing" textLength="36" x="360.75" y="18.5684">acme</text><rect fill="#FFFFFF" height="220.4844" style="stroke:#181818;stroke-width:1.0;" width="10" x="120.5" y="119.1094"/><rect fill="#FFFFFF" height="235.7949" style="stroke:#181818;stroke-width:1.0;" width="10" x="246.5" y="148.4199"/><rect fill="#FFFFFF" height="29.3105" style="stroke:#181818;stroke-width:1.0;" width="10" x="439.5" y="236.3516"/><rect fill="#FFFFFF" height="58.6211" style="stroke:#181818;stroke-width:1.0;" width="10" x="439.5" y="384.2148"/><rect fill="#FFFFFF" height="29.3105" style="stroke:#181818;stroke-width:1.0;" width="10" x="610.5" y="413.5254"/><rect fill="#FFFFFF" height="29.3105" style="stroke:#181818;stroke-width:1.0;" width="10" x="679.5" y="177.7305"/><line style="stroke:#181818;stroke-width:0.5;stroke-dasharray:5.0,5.0;" x1="23" x2="23" y1="87.7988" y2="460.8359"/><line style="stroke:#181818;stroke-width:0.5;stroke-dasharray:5.0,5.0;" x1="125.5" x2="125.5" y1="87.7988" y2="460.8359"/><line style="stroke:#181818;stroke-width:0.5;stroke-dasharray:5.0,5.0;" x1="251.5" x2="251.5" y1="87.7988" y2="460.8359"/><line style="stroke:#181818;stroke-width:0.5;stroke-dasharray:5.0,5.0;" x1="444.5" x2="444.5" y1="87.7988" y2="460.8359"/><line style="stroke:#181818;stroke-width:0.5;stroke-dasharray:5.0,5.0;" x1="615" x2="615" y1="87.7988" y2="460.8359"/><line style="stroke:#181818;stroke-width:0.5;stroke-dasharray:5.0,5.0;" x1="684" x2="684" y1="87.7988" y2="460.8359"/><text fill="#000000" font-family="sans-serif" font-size="14" lengthAdjust="spacing" textLength="31" x="5" y="84.8457">User</text><ellipse cx="23.5" cy="19.8105" fill="#E2E2F0" rx="8" ry="8" style="stroke:#181818;stroke-width:0.5;"/><path d="M23.5,27.8105 L23.5,54.8105 M10.5,35.8105 L36.5,35.8105 M23.5,54.8105 L10.5,69.8105 M23.5,54.8105 L36.5,69.8105 " fill="none" style="stroke:#181818;stroke-width:0.5;"/><text fill="#000000" font-family="sans-serif" font-size="14" lengthAdjust="spacing" textLength="31" x="5" y="473.3711">User</text><ellipse cx="23.5" cy="484.8242" fill="#E2E2F0" rx="8" ry="8" style="stroke:#181818;stroke-width:0.5;"/><path d="M23.5,492.8242 L23.5,519.8242 M10.5,500.8242 L36.5,500.8242 M23.5,519.8242 L10.5,534.8242 M23.5,519.8242 L36.5,534.8242 " fill="none" style="stroke:#181818;stroke-width:0.5;"/><rect fill="#E2E2F0" height="30.4883" rx="2.5" ry="2.5" style="stroke:#181818;stroke-width:0.5;" width="36" x="107.5" y="56.3105"/><text fill="#000000" font-family="sans-serif" font-size="14" lengthAdjust="spacing" textLength="22" x="114.5" y="76.8457">API</text><rect fill="#E2E2F0" height="30.4883" rx="2.5" ry="2.5" style="stroke:#181818;stroke-width:0.5;" width="36" x="107.5" y="459.8359"/><text fill="#000000" font-family="sans-serif" font-size="14" lengthAdjust="spacing" textLength="22" x="114.5" y="480.3711">API</text><rect fill="#E2E2F0" height="30.4883" rx="2.5" ry="2.5" style="stroke:#181818;stroke-width:0.5;" width="90" x="206.5" y="56.3105"/><text fill="#000000" font-family="sans-serif" font-size="14" lengthAdjust="spacing" textLength="76" x="213.5" y="76.8457">Interceptor</text><rect fill="#E2E2F0" height="30.4883" rx="2.5" ry="2.5" style="stroke:#181818;stroke-width:0.5;" width="90" x="206.5" y="459.8359"/><text fill="#000000" font-family="sans-serif" font-size="14" lengthAdjust="spacing" textLength="76" x="213.5" y="480.3711">Interceptor</text><rect fill="#E2E2F0" height="30.4883" rx="2.5" ry="2.5" style="stroke:#181818;stroke-width:0.5;" width="62" x="413.5" y="56.3105"/><text fill="#000000" font-family="sans-serif" font-size="14" lengthAdjust="spacing" textLength="48" x="420.5" y="76.8457">Service</text><rect fill="#E2E2F0" height="30.4883" rx="2.5" ry="2.5" style="stroke:#181818;stroke-width:0.5;" width="62" x="413.5" y="459.8359"/><text fill="#000000" font-family="sans-serif" font-size="14" lengthAdjust="spacing" textLength="48" x="420.5" y="480.3711">Service</text><text fill="#000000" font-family="sans-serif" font-size="14" lengthAdjust="spacing" textLength="63" x="581" y="84.8457">Database</text><path d="M597.5,35.3105 C597.5,25.3105 615.5,25.3105 615.5,25.3105 C615.5,25.3105 633.5,25.3105 633.5,35.3105 L633.5,61.3105 C633.5,71.3105 615.5,71.3105 615.5,71.3105 C615.5,71.3105 597.5,71.3105 597.5,61.3105 L597.5,35.3105 " fill="#E2E2F0" style="stroke:#181818;stroke-width:1.5;"/><path d="M597.5,35.3105 C597.5,45.3105 615.5,45.3105 615.5,45.3105 C615.5,45.3105 633.5,45.3105 633.5,35.3105 " fill="none" style="stroke:#181818;stroke-width:1.5;"/><text fill="#000000" font-family="sans-serif" font-size="14" lengthAdjust="spacing" textLength="63" x="581" y="473.3711">Database</text><path d="M597.5,486.3242 C597.5,476.3242 615.5,476.3242 615.5,476.3242 C615.5,476.3242 633.5,476.3242 633.5,486.3242 L633.5,512.3242 C633.5,522.3242 615.5,522.3242 615.5,522.3242 C615.5,522.3242 597.5,522.3242 597.5,512.3242 L597.5,486.3242 " fill="#E2E2F0" style="stroke:#181818;stroke-width:1.5;"/><path d="M597.5,486.3242 C597.5,496.3242 615.5,496.3242 615.5,496.3242 C615.5,496.3242 633.5,496.3242 633.5,486.3242 " fill="none" style="stroke:#181818;stroke-width:1.5;"/><rect fill="#E2E2F0" height="30.4883" rx="2.5" ry="2.5" style="stroke:#181818;stroke-width:0.5;" width="49" x="660" y="56.3105"/><text fill="#000000" font-family="sans-serif" font-size="14" lengthAdjust="spacing" textLength="35" x="667" y="76.8457">IPApi</text><rect fill="#E2E2F0" height="30.4883" rx="2.5" ry="2.5" style="stroke:#181818;stroke-width:0.5;" width="49" x="660" y="459.8359"/><text fill="#000000" font-family="sans-serif" font-size="14" lengthAdjust="spacing" textLength="35" x="667" y="480.3711">IPApi</text><rect fill="#FFFFFF" height="220.4844" style="stroke:#181818;stroke-width:1.0;" width="10" x="120.5" y="119.1094"/><rect fill="#FFFFFF" height="235.7949" style="stroke:#181818;stroke-width:1.0;" width="10" x="246.5" y="148.4199"/><rect fill="#FFFFFF" height="29.3105" style="stroke:#181818;stroke-width:1.0;" width="10" x="439.5" y="236.3516"/><rect fill="#FFFFFF" height="58.6211" style="stroke:#181818;stroke-width:1.0;" width="10" x="439.5" y="384.2148"/><rect fill="#FFFFFF" height="29.3105" style="stroke:#181818;stroke-width:1.0;" width="10" x="610.5" y="413.5254"/><rect fill="#FFFFFF" height="29.3105" style="stroke:#181818;stroke-width:1.0;" width="10" x="679.5" y="177.7305"/><polygon fill="#181818" points="108.5,115.1094,118.5,119.1094,108.5,123.1094,112.5,119.1094" style="stroke:#181818;stroke-width:1.0;"/><line style="stroke:#181818;stroke-width:1.0;" x1="23.5" x2="114.5" y1="119.1094" y2="119.1094"/><text fill="#000000" font-family="sans-serif" font-size="13" font-weight="bold" lengthAdjust="spacing" textLength="9" x="30.5" y="114.3672">1</text><text fill="#000000" font-family="sans-serif" font-size="13" lengthAdjust="spacing" textLength="50" x="43.5" y="114.3672">Request</text><polygon fill="#181818" points="234.5,144.4199,244.5,148.4199,234.5,152.4199,238.5,148.4199" style="stroke:#181818;stroke-width:1.0;"/><line style="stroke:#181818;stroke-width:1.0;" x1="130.5" x2="240.5" y1="148.4199" y2="148.4199"/><text fill="#000000" font-family="sans-serif" font-size="13" font-weight="bold" lengthAdjust="spacing" textLength="9" x="137.5" y="143.6777">2</text><text fill="#000000" font-family="sans-serif" font-size="13" lengthAdjust="spacing" textLength="79" x="150.5" y="143.6777">Pass request</text><polygon fill="#181818" points="667.5,173.7305,677.5,177.7305,667.5,181.7305,671.5,177.7305" style="stroke:#181818;stroke-width:1.0;"/><line style="stroke:#181818;stroke-width:1.0;" x1="256.5" x2="673.5" y1="177.7305" y2="177.7305"/><text fill="#000000" font-family="sans-serif" font-size="13" font-weight="bold" lengthAdjust="spacing" textLength="9" x="263.5" y="172.9883">3</text><text fill="#000000" font-family="sans-serif" font-size="13" lengthAdjust="spacing" textLength="115" x="276.5" y="172.9883">Retrieve data by IP</text><polygon fill="#181818" points="267.5,203.041,257.5,207.041,267.5,211.041,263.5,207.041" style="stroke:#181818;stroke-width:1.0;"/><line style="stroke:#181818;stroke-width:1.0;stroke-dasharray:2.0,2.0;" x1="261.5" x2="683.5" y1="207.041" y2="207.041"/><text fill="#000000" font-family="sans-serif" font-size="13" font-weight="bold" lengthAdjust="spacing" textLength="9" x="273.5" y="202.2988">4</text><text fill="#000000" font-family="sans-serif" font-size="13" lengthAdjust="spacing" textLength="44" x="286.5" y="202.2988">IP Data</text><polygon fill="#181818" points="427.5,232.3516,437.5,236.3516,427.5,240.3516,431.5,236.3516" style="stroke:#181818;stroke-width:1.0;"/><line style="stroke:#181818;stroke-width:1.0;" x1="256.5" x2="433.5" y1="236.3516" y2="236.3516"/><text fill="#000000" font-family="sans-serif" font-size="13" font-weight="bold" lengthAdjust="spacing" textLength="9" x="263.5" y="231.6094">5</text><text fill="#000000" font-family="sans-serif" font-size="13" lengthAdjust="spacing" textLength="79" x="276.5" y="231.6094">Pass request</text><polygon fill="#181818" points="267.5,261.6621,257.5,265.6621,267.5,269.6621,263.5,265.6621" style="stroke:#181818;stroke-width:1.0;"/><line style="stroke:#181818;stroke-width:1.0;stroke-dasharray:2.0,2.0;" x1="261.5" x2="443.5" y1="265.6621" y2="265.6621"/><text fill="#000000" font-family="sans-serif" font-size="13" font-weight="bold" lengthAdjust="spacing" textLength="9" x="273.5" y="260.9199">6</text><text fill="#000000" font-family="sans-serif" font-size="13" lengthAdjust="spacing" textLength="103" x="286.5" y="260.9199">Request fulfilled</text><polygon fill="#181818" points="141.5,306.2832,131.5,310.2832,141.5,314.2832,137.5,310.2832" style="stroke:#181818;stroke-width:1.0;"/><line style="stroke:#181818;stroke-width:1.0;stroke-dasharray:2.0,2.0;" x1="135.5" x2="245.5" y1="310.2832" y2="310.2832"/><text fill="#000000" font-family="sans-serif" font-size="13" font-weight="bold" lengthAdjust="spacing" textLength="9" x="147.5" y="297.8857">7</text><text fill="#000000" font-family="sans-serif" font-size="13" lengthAdjust="spacing" textLength="60" x="160.5" y="290.2305">Response</text><text fill="#000000" font-family="sans-serif" font-size="13" lengthAdjust="spacing" textLength="79" x="160.5" y="305.541">(StatusCode)</text><polygon fill="#181818" points="34.5,335.5938,24.5,339.5938,34.5,343.5938,30.5,339.5938" style="stroke:#181818;stroke-width:1.0;"/><line style="stroke:#181818;stroke-width:1.0;stroke-dasharray:2.0,2.0;" x1="28.5" x2="124.5" y1="339.5938" y2="339.5938"/><text fill="#000000" font-family="sans-serif" font-size="13" font-weight="bold" lengthAdjust="spacing" textLength="9" x="40.5" y="334.8516">8</text><text fill="#000000" font-family="sans-serif" font-size="13" lengthAdjust="spacing" textLength="60" x="53.5" y="334.8516">Response</text><line style="stroke:#181818;stroke-width:1.0;" x1="437.5" x2="427.5" y1="384.2148" y2="380.2148"/><line style="stroke:#181818;stroke-width:1.0;" x1="437.5" x2="427.5" y1="384.2148" y2="388.2148"/><line style="stroke:#181818;stroke-width:1.0;stroke-dasharray:2.0,2.0;" x1="251.5" x2="438.5" y1="384.2148" y2="384.2148"/><text fill="#000000" font-family="sans-serif" font-size="13" font-weight="bold" lengthAdjust="spacing" textLength="9" x="258.5" y="371.8174">9</text><text fill="#000000" font-family="sans-serif" font-size="13" lengthAdjust="spacing" textLength="151" x="271.5" y="364.1621">save request and IpData</text><text fill="#000000" font-family="sans-serif" font-size="13" lengthAdjust="spacing" textLength="84" x="271.5" y="379.4727">(Async event)</text><polygon fill="#181818" points="598.5,409.5254,608.5,413.5254,598.5,417.5254,602.5,413.5254" style="stroke:#181818;stroke-width:1.0;"/><line style="stroke:#181818;stroke-width:1.0;" x1="449.5" x2="604.5" y1="413.5254" y2="413.5254"/><text fill="#000000" font-family="sans-serif" font-size="13" font-weight="bold" lengthAdjust="spacing" textLength="18" x="456.5" y="408.7832">10</text><text fill="#000000" font-family="sans-serif" font-size="13" lengthAdjust="spacing" textLength="120" x="478.5" y="408.7832">httpRequest record</text><polygon fill="#181818" points="455.5,438.8359,445.5,442.8359,455.5,446.8359,451.5,442.8359" style="stroke:#181818;stroke-width:1.0;"/><line style="stroke:#181818;stroke-width:1.0;stroke-dasharray:2.0,2.0;" x1="449.5" x2="614.5" y1="442.8359" y2="442.8359"/><text fill="#000000" font-family="sans-serif" font-size="13" font-weight="bold" lengthAdjust="spacing" textLength="18" x="461.5" y="438.0938">11</text><text fill="#000000" font-family="sans-serif" font-size="13" lengthAdjust="spacing" textLength="36" x="483.5" y="438.0938">saved</text><!--SRC=[TPB1RiCW38RlF8NLozP3rtiEbQhjabkqQhTT770tf0GOEDNwzWEMj2HH8oLOnFR_-uEdRsONgltUTMXuwBiNQVjze9-1ZAITqlZbiHS21xPcw5loCPPiFNo46BVs5pOeUze8Y8z3prfg5rl1iQbNUxLXyf9Sh5_zEv6_Q4bvNo5ZYu7WRGm46GLHJCowDKUdXH392UmEIR62zsGzS3AfByYKVSGt9HJo5JGO0lXbTkcmY7Draai2x3LTA9k4zXhtY_9iANzXjrIicpoFKBJ8NogDA1vvd4YDwrfeP03deJlhhYDLIaxLCyqxlU2i2VHfda-CF8HNgsWh_W76f8JwdbMsJPYNFOj90aPYuoI0yJ1hbrX4dMEu6WaHgE7j34rn4ez7FzokI0NfAa-ZUvBMgtlXxI9DGHvdPcz6wPQ_9lS7]--></g></svg>
