<?xml version="1.0" encoding="us-ascii" standalone="no"?>
<svg xmlns="http://www.w3.org/2000/svg" contentStyleType="text/css" height="366px" preserveAspectRatio="none"
     style="width:430px;height:366px;background:#FFFFFF;" version="1.1" viewBox="0 0 430 366" width="430px"
     zoomAndPan="magnify"><defs/><g><rect fill="#DDDDDD" height="354.8398" style="stroke:#181818;stroke-width:0.5;" width="222" x="195.5" y="6"/><text fill="#000000" font-family="sans-serif" font-size="13" font-weight="bold" lengthAdjust="spacing" textLength="36" x="288.5" y="18.5684">acme</text><rect fill="#FFFFFF" height="158.5527" style="stroke:#181818;stroke-width:1.0;" width="10" x="212.5" y="112.7988"/><rect fill="#FFFFFF" height="29.3105" style="stroke:#181818;stroke-width:1.0;" width="10" x="377.5" y="166.4199"/><rect fill="none" height="136.5527" style="stroke:#000000;stroke-width:1.5;" width="413.5" x="10" y="127.7988"/><line style="stroke:#181818;stroke-width:0.5;stroke-dasharray:5.0,5.0;" x1="38" x2="38" y1="81.4883" y2="281.3516"/><line style="stroke:#181818;stroke-width:0.5;stroke-dasharray:5.0,5.0;" x1="217.5" x2="217.5" y1="81.4883" y2="281.3516"/><line style="stroke:#181818;stroke-width:0.5;stroke-dasharray:5.0,5.0;" x1="382.5" x2="382.5" y1="81.4883" y2="281.3516"/><text fill="#000000" font-family="sans-serif" font-size="14" lengthAdjust="spacing" textLength="31" x="20" y="78.5352">User</text><ellipse cx="38.5" cy="13.5" fill="#E2E2F0" rx="8" ry="8" style="stroke:#181818;stroke-width:0.5;"/><path d="M38.5,21.5 L38.5,48.5 M25.5,29.5 L51.5,29.5 M38.5,48.5 L25.5,63.5 M38.5,48.5 L51.5,63.5 " fill="none" style="stroke:#181818;stroke-width:0.5;"/><text fill="#000000" font-family="sans-serif" font-size="14" lengthAdjust="spacing" textLength="31" x="20" y="293.8867">User</text><ellipse cx="38.5" cy="305.3398" fill="#E2E2F0" rx="8" ry="8" style="stroke:#181818;stroke-width:0.5;"/><path d="M38.5,313.3398 L38.5,340.3398 M25.5,321.3398 L51.5,321.3398 M38.5,340.3398 L25.5,355.3398 M38.5,340.3398 L51.5,355.3398 " fill="none" style="stroke:#181818;stroke-width:0.5;"/><rect fill="#E2E2F0" height="30.4883" rx="2.5" ry="2.5" style="stroke:#181818;stroke-width:0.5;" width="36" x="199.5" y="50"/><text fill="#000000" font-family="sans-serif" font-size="14" lengthAdjust="spacing" textLength="22" x="206.5" y="70.5352">API</text><rect fill="#E2E2F0" height="30.4883" rx="2.5" ry="2.5" style="stroke:#181818;stroke-width:0.5;" width="36" x="199.5" y="280.3516"/><text fill="#000000" font-family="sans-serif" font-size="14" lengthAdjust="spacing" textLength="22" x="206.5" y="300.8867">API</text><rect fill="#E2E2F0" height="30.4883" rx="2.5" ry="2.5" style="stroke:#181818;stroke-width:0.5;" width="62" x="351.5" y="50"/><text fill="#000000" font-family="sans-serif" font-size="14" lengthAdjust="spacing" textLength="48" x="358.5" y="70.5352">Service</text><rect fill="#E2E2F0" height="30.4883" rx="2.5" ry="2.5" style="stroke:#181818;stroke-width:0.5;" width="62" x="351.5" y="280.3516"/><text fill="#000000" font-family="sans-serif" font-size="14" lengthAdjust="spacing" textLength="48" x="358.5" y="300.8867">Service</text><rect fill="#FFFFFF" height="158.5527" style="stroke:#181818;stroke-width:1.0;" width="10" x="212.5" y="112.7988"/><rect fill="#FFFFFF" height="29.3105" style="stroke:#181818;stroke-width:1.0;" width="10" x="377.5" y="166.4199"/><polygon fill="#181818" points="200.5,108.7988,210.5,112.7988,200.5,116.7988,204.5,112.7988" style="stroke:#181818;stroke-width:1.0;"/><line style="stroke:#181818;stroke-width:1.0;" x1="38.5" x2="206.5" y1="112.7988" y2="112.7988"/><text fill="#000000" font-family="sans-serif" font-size="13" font-weight="bold" lengthAdjust="spacing" textLength="9" x="45.5" y="108.0566">1</text><text fill="#000000" font-family="sans-serif" font-size="13" lengthAdjust="spacing" textLength="96" x="58.5" y="108.0566">Submit CSV file</text><path d="M10,127.7988 L72,127.7988 L72,135.1094 L62,145.1094 L10,145.1094 L10,127.7988 " fill="#EEEEEE" style="stroke:#000000;stroke-width:1.5;"/><rect fill="none" height="136.5527" style="stroke:#000000;stroke-width:1.5;" width="413.5" x="10" y="127.7988"/><text fill="#000000" font-family="sans-serif" font-size="13" font-weight="bold" lengthAdjust="spacing" textLength="17" x="25" y="141.3672">alt</text><text fill="#000000" font-family="sans-serif" font-size="11" font-weight="bold" lengthAdjust="spacing" textLength="105" x="87" y="140.4336">["is request valid"]</text><polygon fill="#181818" points="365.5,162.4199,375.5,166.4199,365.5,170.4199,369.5,166.4199" style="stroke:#181818;stroke-width:1.0;"/><line style="stroke:#181818;stroke-width:1.0;" x1="222.5" x2="371.5" y1="166.4199" y2="166.4199"/><text fill="#000000" font-family="sans-serif" font-size="13" font-weight="bold" lengthAdjust="spacing" textLength="9" x="229.5" y="161.6777">2</text><text fill="#000000" font-family="sans-serif" font-size="13" lengthAdjust="spacing" textLength="100" x="242.5" y="161.6777">Process CSV file</text><polygon fill="#181818" points="233.5,191.7305,223.5,195.7305,233.5,199.7305,229.5,195.7305" style="stroke:#181818;stroke-width:1.0;"/><line style="stroke:#181818;stroke-width:1.0;stroke-dasharray:2.0,2.0;" x1="227.5" x2="381.5" y1="195.7305" y2="195.7305"/><text fill="#000000" font-family="sans-serif" font-size="13" font-weight="bold" lengthAdjust="spacing" textLength="9" x="239.5" y="190.9883">3</text><text fill="#000000" font-family="sans-serif" font-size="13" lengthAdjust="spacing" textLength="118" x="252.5" y="190.9883">Processed Json file</text><polygon fill="#181818" points="49.5,221.041,39.5,225.041,49.5,229.041,45.5,225.041" style="stroke:#181818;stroke-width:1.0;"/><line style="stroke:#181818;stroke-width:1.0;stroke-dasharray:2.0,2.0;" x1="43.5" x2="211.5" y1="225.041" y2="225.041"/><text fill="#000000" font-family="sans-serif" font-size="13" font-weight="bold" lengthAdjust="spacing" textLength="9" x="55.5" y="220.2988">4</text><text fill="#000000" font-family="sans-serif" font-size="13" lengthAdjust="spacing" textLength="137" x="68.5" y="220.2988">Return JSON response</text><line style="stroke:#000000;stroke-width:1.0;stroke-dasharray:2.0,2.0;" x1="10" x2="423.5" y1="234.041" y2="234.041"/><polygon fill="#FF0000" points="49.5,252.3516,39.5,256.3516,49.5,260.3516,45.5,256.3516" style="stroke:#FF0000;stroke-width:1.0;"/><line style="stroke:#FF0000;stroke-width:1.0;stroke-dasharray:2.0,2.0;" x1="43.5" x2="211.5" y1="256.3516" y2="256.3516"/><text fill="#000000" font-family="sans-serif" font-size="13" font-weight="bold" lengthAdjust="spacing" textLength="9" x="55.5" y="251.6094">5</text><text fill="#000000" font-family="sans-serif" font-size="13" lengthAdjust="spacing" textLength="121" x="68.5" y="251.6094">Return Bad Request</text><!--SRC=[RL2xJiGm4Epz5QjGK8NqAP20YYlWH0GDed3iXRFa5zvrnEUp3ZaE12wiqNfcTiRd1-PCup1ahoFNu2zC2WFXUyLeiBTElnKTbDALKwnXnYBOS2hmI8Bdz06TDW4x1NAoBkoCos85L_lRFxC9o-8CAemMHAfKCu7-if57cEeS7CFDz0IlpcFRunRDk5efxHawHr1QDc9Oj7VsQwsyDvFDVOHzIGQ9JawDzErs3D666uR-c66JeeKTfNXIM_nNlsuMRUinmWDoBH5sq_sTnAIS8abNBzVAUpuhQ5-4_Pj-hQt0jTJwCL9KgH_xHFi9]--></g></svg>
